<?xml version="1.0" standalone="no"?>
<!DOCTYPE svg PUBLIC "-//W3C//DTD SVG 20010904//EN"
 "http://www.w3.org/TR/2001/REC-SVG-20010904/DTD/svg10.dtd">
<svg version="1.0" xmlns="http://www.w3.org/2000/svg"
 width="1280.000000pt" height="366.000000pt" viewBox="0 0 1280.000000 366.000000"
 preserveAspectRatio="xMidYMid meet">
<metadata>
Created by potrace 1.16, written by Peter Selinger 2001-2019
</metadata>
<g transform="translate(0.000000,366.000000) scale(0.100000,-0.100000)"
fill="#ffffff" stroke="none">
<path d="M2085 3253 c12 -28 70 -183 90 -238 22 -62 30 -81 49 -125 9 -19 22
-55 30 -80 8 -25 33 -92 56 -150 23 -58 44 -114 46 -125 3 -11 18 -51 34 -90
15 -38 40 -104 55 -145 16 -41 43 -113 62 -160 18 -46 33 -89 33 -95 0 -6 11
-34 24 -61 13 -28 29 -70 36 -93 6 -24 16 -51 21 -60 8 -14 44 -109 80 -211 6
-19 24 -66 39 -105 15 -38 37 -95 48 -125 32 -85 101 -268 127 -335 13 -33 27
-71 30 -85 4 -14 13 -38 21 -55 12 -28 55 -141 85 -225 7 -19 24 -66 40 -105
63 -162 81 -211 84 -225 2 -8 12 -36 24 -62 l20 -48 376 0 c349 0 376 1 381
18 3 9 10 26 15 37 9 20 15 36 54 140 13 33 40 103 60 155 20 52 41 111 47
130 5 19 13 40 17 45 4 6 13 24 19 40 20 54 83 219 111 290 15 39 34 86 41
105 6 19 28 76 47 125 19 50 43 113 53 140 10 28 37 97 60 155 22 58 46 119
51 135 6 17 23 62 39 100 15 39 47 120 70 180 23 61 48 124 55 140 7 17 17 44
21 60 4 17 10 35 14 40 4 6 17 39 30 75 13 36 31 83 41 105 9 22 26 65 37 95
20 56 41 109 106 280 21 52 49 127 63 165 14 39 32 83 40 99 8 15 17 40 19 53
3 14 14 43 24 64 11 21 20 41 20 44 0 3 -146 5 -324 5 l-323 0 -16 -52 c-8
-29 -36 -109 -62 -178 -41 -113 -82 -225 -116 -320 -7 -19 -23 -64 -37 -100
-13 -36 -26 -72 -27 -80 -2 -8 -25 -71 -50 -140 -42 -115 -84 -231 -116 -320
-7 -19 -22 -63 -35 -96 -13 -34 -32 -88 -43 -120 -11 -33 -25 -72 -32 -89 -7
-16 -18 -48 -25 -70 -7 -22 -29 -85 -49 -140 -53 -145 -81 -223 -101 -280 -17
-51 -34 -95 -56 -150 -6 -16 -17 -48 -24 -70 -7 -22 -26 -76 -42 -119 -33 -91
-32 -91 -75 34 -15 41 -45 125 -67 185 -23 61 -45 124 -49 140 -4 17 -13 39
-18 50 -6 11 -22 54 -36 95 -14 41 -42 120 -62 175 -21 55 -48 129 -61 165
-13 36 -42 115 -65 175 -22 61 -46 128 -53 150 -7 22 -18 53 -25 70 -7 16 -21
59 -33 95 -11 36 -24 70 -28 75 -4 6 -13 28 -19 50 -7 22 -25 74 -41 115 -15
41 -42 116 -60 165 -18 50 -44 124 -59 165 -37 101 -48 133 -77 215 -14 39
-29 79 -35 90 -5 11 -16 40 -23 65 l-13 45 -338 3 c-319 2 -337 1 -330 -15z"/>
<path d="M5292 2820 c-32 -13 -56 -73 -41 -103 23 -44 41 -57 80 -57 29 0 43
6 63 31 34 40 33 74 -3 110 -30 30 -58 35 -99 19z"/>
<path d="M6250 2360 l0 -460 70 0 70 0 0 223 c0 211 1 224 23 261 29 52 65 77
119 83 68 8 123 -24 154 -90 23 -50 24 -61 24 -264 l0 -213 66 0 66 0 -4 258
c-3 288 -2 284 -85 364 -49 47 -79 58 -164 58 -57 0 -77 -5 -112 -26 -23 -14
-52 -38 -64 -52 l-23 -27 0 173 0 172 -70 0 -70 0 0 -460z"/>
<path d="M5689 2560 c-49 -26 -107 -95 -115 -137 -17 -88 26 -160 116 -192 30
-11 88 -28 128 -38 128 -30 179 -100 115 -159 -33 -31 -61 -38 -118 -30 -54 9
-102 46 -113 89 -8 31 -9 32 -75 35 -66 3 -67 3 -67 -23 0 -120 152 -224 306
-210 116 10 195 64 220 152 14 48 14 58 -1 108 -23 82 -68 110 -225 145 -97
22 -150 57 -150 99 1 52 51 85 117 76 51 -6 82 -30 104 -81 l20 -44 65 0 c72
0 66 -8 49 76 -4 15 -11 32 -18 39 -7 7 -21 23 -33 36 -57 64 -95 79 -202 79
-66 -1 -96 -6 -123 -20z"/>
<path d="M7164 2554 c-121 -58 -180 -174 -172 -338 6 -111 35 -183 97 -239 65
-58 122 -80 211 -81 65 0 82 3 124 28 26 15 57 39 69 52 30 35 37 30 37 -26
l0 -50 65 0 65 0 0 340 0 340 -65 0 -65 0 0 -56 0 -55 -32 34 c-55 58 -105 77
-200 77 -68 -1 -93 -5 -134 -26z m263 -116 c21 -14 52 -44 68 -68 41 -59 48
-167 16 -233 -92 -189 -335 -157 -379 50 -21 98 15 197 90 248 43 29 63 34
120 31 30 -2 61 -12 85 -28z"/>
<path d="M7860 2240 l0 -340 70 0 70 0 0 213 c0 201 1 214 23 252 31 55 77 78
145 71 l53 -5 -3 72 -3 72 -58 3 c-58 3 -59 3 -108 -46 l-49 -49 0 48 0 49
-70 0 -70 0 0 -340z"/>
<path d="M8512 2567 c-18 -5 -61 -36 -95 -67 -52 -48 -66 -69 -85 -121 -50
-144 -18 -307 80 -401 79 -76 209 -107 304 -72 26 10 84 53 111 84 l22 25 1
-57 0 -58 65 0 65 0 0 340 0 340 -65 0 -65 0 0 -55 0 -55 -38 38 c-57 57 -97
72 -189 71 -43 -1 -93 -6 -111 -12z m199 -109 c90 -30 139 -106 139 -218 0
-138 -83 -230 -208 -230 -46 0 -122 43 -151 86 -48 69 -48 218 0 289 28 41
108 85 154 85 18 0 47 -5 66 -12z"/>
<path d="M9187 2574 c-4 -4 -7 -158 -7 -341 l0 -334 73 3 72 3 5 240 c3 132 7
241 8 243 1 1 18 18 37 37 80 77 207 50 248 -54 13 -31 16 -80 16 -228 0 -103
1 -200 1 -215 0 -28 0 -28 70 -28 l70 0 0 225 c0 247 2 255 60 310 27 26 39
30 88 30 71 0 116 -29 143 -92 17 -39 19 -70 19 -259 l0 -214 66 0 65 0 -4
248 c-2 136 -6 257 -9 269 -12 40 -59 101 -101 130 -36 24 -54 28 -127 31 -82
4 -87 3 -135 -30 -27 -18 -61 -50 -75 -71 -15 -23 -26 -33 -29 -25 -10 33 -47
71 -94 98 -43 25 -63 30 -119 30 -83 0 -112 -11 -160 -59 l-37 -38 -3 46 -3
46 -65 3 c-36 2 -69 0 -73 -4z"/>
<path d="M5260 2237 l0 -334 70 -2 70 -2 0 335 0 336 -70 0 -70 0 0 -333z"/>
<path d="M4920 1680 l0 -30 2765 0 2765 0 0 30 0 30 -2765 0 -2765 0 0 -30z"/>
<path d="M4920 1535 l0 -35 2765 0 2765 0 0 35 0 35 -2765 0 -2765 0 0 -35z"/>
<path d="M6552 1247 c-46 -11 -111 -72 -113 -107 -1 -11 -3 -24 -4 -30 -1 -5
-3 -30 -4 -55 l-1 -45 -40 0 -40 0 0 -54 0 -55 38 -3 37 -3 3 -282 2 -283 65
0 65 0 0 285 0 285 85 0 85 0 0 55 0 55 -85 0 -85 0 0 30 c0 43 26 89 55 96
13 3 45 4 70 2 l45 -3 0 51 c0 49 -2 53 -31 63 -38 13 -88 12 -147 -2z"/>
<path d="M10000 790 l0 -461 73 3 72 3 5 235 c5 256 8 269 67 307 42 27 131
24 176 -7 59 -40 61 -51 65 -307 l4 -233 70 0 70 0 -4 247 c-3 246 -3 248 -30
298 -51 97 -115 135 -223 135 -71 0 -119 -18 -167 -63 l-28 -26 -2 162 -3 162
-72 3 -73 3 0 -461z"/>
<path d="M7800 1182 c-6 -2 -10 -26 -10 -53 l0 -49 125 0 125 0 0 -375 0 -375
65 0 65 0 2 373 3 372 128 3 127 3 0 49 0 49 -310 3 c-171 2 -315 2 -320 0z"/>
<path d="M5240 757 l0 -423 65 0 65 0 0 423 0 423 -65 0 -65 0 0 -423z"/>
<path d="M5600 670 l0 -340 70 0 70 0 0 223 c0 212 1 224 23 262 27 48 88 85
141 85 53 0 113 -36 140 -85 19 -37 21 -57 24 -262 l3 -223 66 0 65 0 -4 253
c-3 160 -8 262 -16 279 -17 40 -61 87 -111 119 -39 25 -55 29 -118 29 -83 0
-138 -21 -185 -72 l-28 -30 0 51 0 51 -70 0 -70 0 0 -340z"/>
<path d="M6975 979 c-82 -42 -122 -82 -161 -164 -30 -65 -33 -77 -30 -155 4
-144 70 -246 195 -303 56 -25 77 -29 152 -29 74 0 96 5 145 28 72 34 148 108
176 172 31 68 30 221 -1 285 -34 69 -92 129 -161 165 -58 30 -70 32 -159 32
-87 -1 -102 -4 -156 -31z m269 -116 c59 -40 90 -109 89 -193 0 -66 -20 -128
-51 -164 -28 -31 -109 -66 -152 -66 -43 0 -124 35 -152 66 -43 48 -62 153 -42
230 19 75 44 107 107 139 68 34 141 30 201 -12z"/>
<path d="M8643 986 c-71 -33 -136 -96 -164 -159 -20 -44 -24 -68 -24 -157 0
-94 3 -111 27 -160 32 -66 85 -119 153 -154 40 -21 65 -26 131 -27 45 -1 98 4
119 11 41 14 111 58 136 87 18 20 69 113 69 125 0 5 -34 8 -75 8 -67 0 -75 -2
-75 -19 0 -29 -56 -77 -106 -91 -86 -24 -167 9 -218 88 -13 20 -27 49 -30 65
l-6 27 261 0 262 0 -5 78 c-7 126 -73 229 -179 280 -67 32 -204 31 -276 -2z
m242 -125 c42 -30 59 -56 70 -108 l7 -33 -182 0 c-202 0 -205 1 -175 65 20 40
86 101 119 109 49 11 120 -4 161 -33z"/>
<path d="M9440 999 c-60 -23 -122 -77 -163 -138 l-42 -65 -3 -118 c-4 -135 7
-170 77 -250 60 -68 118 -92 229 -96 84 -4 97 -2 145 23 28 15 65 39 80 53 32
30 82 106 92 140 6 21 4 22 -69 22 l-76 0 -14 -32 c-36 -86 -133 -120 -221
-79 -61 28 -84 59 -100 138 -16 76 -10 137 19 207 36 87 173 121 250 62 21
-16 44 -44 52 -62 l14 -34 75 0 75 0 -6 28 c-19 74 -82 149 -158 187 -43 21
-63 25 -140 24 -50 0 -102 -5 -116 -10z"/>
</g>
</svg>
